# This file uses meters as units for non-parametric coordinates.

v 50.000008 -49.738884 -50.000000
v -50.000000 -49.738884 -50.000000
v 50.000008 50.261116 -50.000000
v -50.000000 50.261116 -50.000000
v 50.000008 50.261116 50.000000
v -50.000000 50.261116 50.000000
v 50.000008 -49.738884 50.000000
v -50.000000 -49.738884 50.000000
v 30.128555 50.261116 -50.000000
v 30.128555 50.261116 50.000000
v 30.128555 -49.738884 50.000000
v 8.545822 -49.738884 -50.000000
v -40.074341 50.261116 -50.000000
v -40.074341 50.261116 50.000000
v -40.074341 -49.738884 50.000000
v -40.074341 -49.738884 -50.000000
v -16.276749 50.261116 -50.000000
v -16.276749 50.261116 50.000000
v -16.276749 -49.738884 50.000000
v -16.276749 -49.738884 -50.000000
v -27.412140 2.603310 -50.000000
v 40.806381 1.799431 -50.000000
v 50.000008 6.543404 -50.000000
v 50.000008 6.543404 50.000000
v 30.128555 6.543404 50.000000
v -16.276749 6.543404 50.000000
v -40.074341 6.543404 50.000000
v -50.000000 6.543404 50.000000
v -50.000000 6.543404 -50.000000
v -40.074341 6.543404 -50.000000
v -10.371796 -4.958771 -50.000000
v 2.803101 -4.958771 -50.000000
v 50.000008 -4.958771 -50.000000
v 50.000008 -4.958771 50.000000
v 30.128555 -4.958771 50.000000
v -16.276749 -4.958771 50.000000
v -40.074341 -4.958771 50.000000
v -50.000000 -4.958771 50.000000
v -50.000000 -4.958771 -50.000000
v -43.247803 -1.775131 -50.000000
v -10.736038 -32.326004 -50.000000
v 2.803101 -25.750404 -50.000000
v 50.000008 -32.326004 -50.000000
v 50.000008 -32.326004 50.000000
v 30.128555 -32.326004 50.000000
v -16.276749 -32.326004 50.000000
v -40.074341 -32.326004 50.000000
v -50.000000 -32.326004 50.000000
v -50.000000 -32.326004 -50.000000
v -42.292206 -33.526798 -50.000000
v 26.720825 12.701530 -54.395351
v 23.406570 43.263000 -56.701931
v -15.326233 13.250702 -61.266151
v -9.554794 38.076736 -56.701931
v -40.074341 -4.958771 -61.941048
v -13.143524 -7.825092 -57.499195
v -13.143524 -29.503475 -51.952927
v -40.074341 -32.326004 -56.394779
v 7.887222 -23.808121 -56.861439
v 41.359940 -28.432432 -56.673004
v 7.887222 -7.070244 -56.861439
v 44.239944 -6.336330 -56.673004
v 6.321304 9.923035 -65.551590
v -0.867783 -3.527905 -50.000000
v -4.350281 -4.958771 -50.000000
v -4.350281 -32.326004 -50.000000
v -4.188873 -46.771351 -50.000000
v 6.321304 -49.738884 50.000000
v 6.321304 -32.326004 50.000000
v 6.321304 -4.958771 50.000000
v 6.321304 6.543404 50.000000
v 6.321304 50.261116 50.000000
v 6.321304 50.261116 -50.000000
v 6.321304 42.049408 -56.701931
v -28.986908 -34.304665 -56.271576
v -26.896149 -38.626724 -50.000000
v -28.463654 -49.738884 -50.000000
v -28.463654 -49.738884 50.000000
v -28.463654 -32.326004 50.000000
v -28.463654 -4.958771 50.000000
v -28.463654 6.543404 50.000000
v -28.463654 50.261116 50.000000
v -28.463654 48.669632 -50.000000
v -32.434891 5.498558 -50.000000
v -31.324341 -3.328407 -50.000000
v -29.504379 -8.495399 -59.773895
v 33.869797 8.822735 -54.891750
v 24.695038 47.436394 -53.925423
v 6.321304 46.254738 -53.925423
v -10.843246 43.244232 -53.925423
v -20.018005 8.822735 -54.366684
v 5.727615 5.047543 -62.570675
v 37.497757 5.465042 -51.176430
v 27.562241 48.779816 -50.944035
v 6.321304 49.297615 -50.944035
v -14.970047 48.573608 -50.944035
v -23.358551 5.465042 -52.190083
v 3.826111 0.256466 -53.023148
vt 0.304883 0.052169
vt 0.776714 0.364101
vt 0.793604 0.432385
vt 0.653349 0.415207
vt 0.304833 0.332771
vt 0.710043 0.673397
vt 0.585667 0.334006
vt 0.641427 0.333999
vt 0.641399 0.102259
vt 0.585640 0.102265
vt 0.585634 0.053405
vt 0.024281 0.052119
vt 0.953935 0.368252
vt 0.360792 0.053431
vt 0.308719 0.413727
vt 0.954229 0.417921
vt 0.785652 0.681079
vt 0.780879 0.332601
vt 0.455453 0.334021
vt 0.844144 0.052045
vt 0.518830 0.053413
vt 0.518836 0.102273
vt 0.455426 0.102281
vt 0.525873 0.373128
vt 0.492030 0.653536
vt 0.851635 0.364525
vt 0.814179 0.414463
vt 0.832210 0.415060
vt 0.713526 0.332527
vt 0.956181 0.666105
vt 0.360826 0.334033
vt 0.388677 0.334029
vt 0.592572 0.372880
vt 0.388650 0.102289
vt 0.925123 0.367047
vt 0.932465 0.413814
vt 0.894195 0.665603
vt 0.746563 0.052055
vt 0.421223 0.053424
vt 0.421229 0.102285
vt 0.561072 0.653279
vt 0.882777 0.395824
vt 0.786188 0.650607
vt 0.785604 0.562145
vt 0.839633 0.566415
vt 0.832932 0.637071
vt 0.304855 0.210098
vt 0.681600 0.530216
vt 0.641412 0.211327
vt 0.585653 0.211333
vt 0.455439 0.211349
vt 0.518849 0.211341
vt 0.388662 0.211357
vt 0.421242 0.211353
vt 0.308703 0.522795
vt 0.952111 0.536969
vt 0.923610 0.539010
vt 0.900770 0.538358
vt 0.804054 0.505874
vt 0.813938 0.502140
vt 0.831781 0.503439
vt 0.885426 0.530889
vt 0.654187 0.512273
vt 0.792998 0.502949
vt 0.641408 0.179052
vt 0.585649 0.179058
vt 0.455435 0.179074
vt 0.518845 0.179066
vt 0.388659 0.179082
vt 0.421238 0.179078
vt 0.308708 0.490519
vt 0.953322 0.501674
vt 0.934210 0.511955
vt 0.895079 0.516311
vt 0.680471 0.435695
vt 0.771463 0.446800
vt 0.772883 0.487788
vt 0.677145 0.496081
vt 0.912317 0.490067
vt 0.887249 0.485384
vt 0.887412 0.415832
vt 0.915140 0.424778
vt 0.691610 0.540938
vt 0.718183 0.669276
vt 0.872519 0.539826
vt 0.790842 0.519591
vt 0.854165 0.668360
vt 0.785771 0.677251
vt 0.840232 0.424395
vt 0.848775 0.488258
vt 0.737059 0.650181
vt 0.725290 0.565641
vt 0.729239 0.662628
vt 0.706178 0.552168
vt 0.786001 0.665001
vt 0.839754 0.652794
vt 0.861421 0.550106
vt 0.786250 0.547179
vt 0.746402 0.332618
vt 0.927804 0.667757
vt 0.421257 0.334026
vt 0.713991 0.052000
vt 0.560030 0.373001
vt 0.388644 0.053428
vt 0.889216 0.364974
vt 0.593615 0.653158
vt 0.844273 0.332573
vt 0.858866 0.673352
vt 0.518864 0.334014
vt 0.780750 0.052074
vt 0.462535 0.373136
vt 0.455420 0.053420
vt 0.814644 0.373093
vt 0.526915 0.653406
vt 0.028118 0.413685
vt 0.028107 0.490478
vt 0.360798 0.102292
vt 0.620392 0.372776
vt 0.308726 0.364866
vt 0.024273 0.100980
vt 0.340113 0.372735
vt 0.641393 0.053398
vt 0.304874 0.101030
vt 0.304860 0.177823
vt 0.028102 0.522753
vt 0.360807 0.179085
vt 0.024259 0.177773
vt 0.655443 0.544011
vt 0.685682 0.332481
vt 0.028084 0.645426
vt 0.966803 0.332516
vt 0.653182 0.670926
vt 0.028125 0.364825
vt 0.621434 0.653054
vt 0.686147 0.051954
vt 0.455381 0.653395
vt 0.395808 0.372918
vt 0.910930 0.052015
vt 0.911059 0.332542
vt 0.653228 0.365875
vt 0.339193 0.653013
vt 0.966674 0.051989
vt 0.308685 0.645467
vt 0.360811 0.211360
vt 0.024232 0.332721
vt 0.024253 0.210048
vn 0.000000 0.000000 -1.000000
vn -0.000000 0.000000 -1.000000
vn 0.000000 0.000000 -1.000000
vn 0.000000 0.000000 -1.000000
vn 0.000000 1.000000 0.000000
vn 0.000021 0.999997 -0.002433
vn 0.000000 1.000000 0.000000
vn 0.000000 1.000000 0.000000
vn 0.000000 0.000000 1.000000
vn 0.000000 0.000000 1.000000
vn 0.000000 0.000000 1.000000
vn 0.000000 0.000000 1.000000
vn 0.000000 -1.000000 0.000000
vn -0.025342 -0.999679 -0.000564
vn -0.035561 -0.999367 -0.000791
vn 0.000000 -1.000000 0.000000
vn -1.000000 0.000000 0.000000
vn -1.000000 0.000000 0.000000
vn -1.000000 0.000000 0.000000
vn -1.000000 0.000000 0.000000
vn 1.000000 0.000000 0.000000
vn 1.000000 0.000000 0.000000
vn 0.999533 -0.001630 -0.030515
vn 1.000000 0.000000 0.000000
vn -0.000021 0.999925 -0.012213
vn -0.022846 0.999707 -0.007997
vn -0.022870 0.999735 -0.002787
vn 0.000000 1.000000 0.000000
vn 0.000000 0.000000 1.000000
vn 0.000000 0.000000 1.000000
vn 0.000000 0.000000 1.000000
vn 0.000000 0.000000 1.000000
vn 0.005424 -0.999926 -0.010911
vn -0.005542 -0.999937 -0.009759
vn 0.050180 -0.998676 -0.011340
vn 0.050180 -0.998676 -0.011340
vn -0.000000 0.000000 -1.000000
vn -0.000000 0.000000 -1.000000
vn 0.000000 0.000000 -1.000000
vn 0.000000 0.000000 -1.000000
vn 0.036923 0.999309 -0.004287
vn 0.000000 1.000000 0.000000
vn 0.000000 1.000000 0.000000
vn 0.036923 0.999309 -0.004287
vn 0.000000 0.000000 1.000000
vn 0.000000 0.000000 1.000000
vn 0.000000 0.000000 1.000000
vn 0.000000 0.000000 1.000000
vn 0.000000 -1.000000 0.000000
vn 0.000000 -1.000000 0.000000
vn 0.000000 -1.000000 0.000000
vn 0.000000 -1.000000 0.000000
vn -0.000000 0.000000 -1.000000
vn 0.000000 0.000000 -1.000000
vn -0.000000 0.000000 -1.000000
vn -0.000000 0.000000 -1.000000
vn -0.000002 0.999968 -0.007957
vn -0.000000 0.999968 -0.007957
vn 0.000000 0.000000 1.000000
vn 0.000000 0.000000 1.000000
vn 0.000000 -1.000000 0.000000
vn 0.000000 -1.000000 0.000000
vn 0.000000 0.000000 -1.000000
vn 0.000000 0.000000 -1.000000
vn 0.111635 0.170072 -0.979088
vn 0.088210 0.177727 -0.980118
vn -0.114238 0.238708 -0.964349
vn -0.114238 0.238708 -0.964349
vn -0.000000 0.000000 -1.000000
vn -0.000000 0.000000 -1.000000
vn -0.000000 0.000000 -1.000000
vn -0.000000 0.000000 -1.000000
vn 1.000000 0.000000 0.000000
vn 1.000000 0.000000 0.000000
vn 1.000000 0.000000 0.000000
vn 1.000000 0.000000 0.000000
vn 0.000000 0.000000 1.000000
vn 0.000000 0.000000 1.000000
vn 0.000000 0.000000 1.000000
vn 0.000000 0.000000 1.000000
vn 0.000000 0.000000 1.000000
vn 0.000000 0.000000 1.000000
vn 0.000000 0.000000 1.000000
vn 0.000000 0.000000 1.000000
vn 0.000000 0.000000 1.000000
vn 0.000000 0.000000 1.000000
vn 0.000000 0.000000 1.000000
vn 0.000000 0.000000 1.000000
vn 0.000000 0.000000 1.000000
vn 0.000000 0.000000 1.000000
vn -1.000000 0.000000 0.000000
vn -1.000000 0.000000 0.000000
vn -1.000000 0.000000 0.000000
vn -1.000000 0.000000 0.000000
vn 0.000000 0.000000 -1.000000
vn -0.000000 0.000000 -1.000000
vn -0.000000 0.000000 -1.000000
vn 0.000000 0.000000 -1.000000
vn -0.000000 0.000000 -1.000000
vn 0.000000 0.000000 -1.000000
vn -0.000001 0.000000 -1.000000
vn 0.000000 0.000000 -1.000000
vn 0.000000 0.000000 -1.000000
vn 0.000000 0.000000 -1.000000
vn 0.000000 0.000000 -1.000000
vn 0.000000 0.000000 -1.000000
vn 1.000000 0.000000 0.000000
vn 0.999192 -0.002144 -0.040141
vn 0.000000 0.000000 1.000000
vn 0.000000 0.000000 1.000000
vn 0.000000 0.000000 1.000000
vn 0.000000 0.000000 1.000000
vn 0.000000 0.000000 1.000000
vn 0.000000 0.000000 1.000000
vn 0.000000 0.000000 1.000000
vn -1.000000 0.000000 0.000000
vn -1.000000 0.000000 0.000000
vn -0.000000 0.000000 -1.000000
vn -0.000000 0.000000 -1.000000
vn 0.000000 0.000000 -1.000000
vn 0.005375 -0.000399 -0.999986
vn 0.005375 -0.000399 -0.999986
vn 0.005375 -0.000399 -0.999986
vn 0.005375 -0.000399 -0.999986
vn 0.061578 -0.166849 -0.984058
vn 0.149130 -0.174361 -0.973324
vn 0.156582 -0.174942 -0.972048
vn 0.061578 -0.166849 -0.984058
vn 0.365943 0.084539 -0.926790
vn 0.365943 0.084539 -0.926789
vn 0.494275 0.117847 -0.861280
vn 0.571498 0.138012 -0.808915
vn -0.061709 -0.509616 -0.858186
vn -0.120726 -0.509420 -0.852007
vn -0.167231 -0.611323 -0.773510
vn 0.010778 -0.687803 -0.725817
vn -0.520918 0.123645 -0.844604
vn -0.520918 0.123645 -0.844604
vn -0.526824 0.129393 -0.840068
vn -0.525965 0.128555 -0.840734
vn -0.027126 0.650804 -0.758761
vn -0.035295 0.568154 -0.822165
vn 0.237953 0.923632 -0.300471
vn 0.144215 0.919996 -0.364431
vn 0.126931 0.918056 -0.375581
vn 0.237953 0.923632 -0.300471
vn 0.875477 -0.060718 -0.479430
vn 0.875477 -0.060718 -0.479430
vn 0.875477 -0.060718 -0.479430
vn 0.875477 -0.060718 -0.479430
vn 0.097281 -0.778217 -0.620415
vn -0.236034 -0.889883 -0.390380
vn -0.236034 -0.889883 -0.390380
vn -0.014999 -0.832282 -0.554150
vn -0.959766 -0.041567 -0.277707
vn -0.959766 -0.041567 -0.277707
vn -0.959766 -0.041567 -0.277707
vn -0.959766 -0.041567 -0.277707
vn -0.127230 -0.922529 -0.364353
vn -0.127230 -0.922529 -0.364353
vn -0.127230 -0.922529 -0.364353
vn -0.127230 -0.922529 -0.364353
vn -0.803469 0.000000 -0.595347
vn -0.803469 0.000000 -0.595347
vn -0.803469 0.000000 -0.595347
vn -0.803469 0.000000 -0.595347
vn -0.007945 0.968407 -0.249248
vn -0.007945 0.968407 -0.249248
vn -0.007945 0.968407 -0.249248
vn -0.007945 0.968407 -0.249248
vn 0.675521 -0.039332 -0.736291
vn 0.675521 -0.039332 -0.736291
vn 0.091255 -0.501831 -0.860139
vn 0.141493 -0.654727 -0.742505
vn -0.001577 0.697737 -0.716352
vn 0.272207 0.114117 -0.955448
vn 0.272207 0.114117 -0.955448
vn 0.313373 -0.625364 -0.714645
vn 0.313373 -0.625364 -0.714645
vn -0.000000 0.000000 -1.000000
vn 0.049087 0.904605 -0.423416
vn 0.049087 0.904605 -0.423416
vn 0.226550 -0.179929 -0.957236
vn 0.226550 -0.179929 -0.957236
vn 0.632605 0.146375 -0.760517
vn 0.643729 0.150098 -0.750389
vn 0.259858 0.028214 -0.965235
vn 0.259858 0.028214 -0.965235
vn -0.074718 0.523678 -0.848633
vn -0.054503 0.600813 -0.797529
vn -0.023468 0.718583 -0.695045
vn -0.037562 0.556056 -0.830296
vn -0.074941 0.535495 -0.841207
vn -0.104871 0.496197 -0.861853
vn -0.623738 0.172653 -0.762327
vn -0.610628 0.167611 -0.773977
vn -0.815030 0.249775 -0.522819
vn -0.815030 0.249775 -0.522819
vn 0.012215 -0.670683 -0.741643
vn -0.247094 -0.716028 -0.652877
vn -0.285728 -0.616685 -0.733525
vn -0.003061 -0.386949 -0.922096
vn 0.235864 -0.748773 -0.619440
vn 0.361066 0.005714 -0.932523
f 1/140/1 12/2/2 42/3/3 43/4/4
f 3/131/5 9/139/6 10/138/7 5/142/8
f 44/9/9 45/10/10 11/11/11 7/122/12
f 7/121/13 11/137/14 12/136/15 1/141/16
f 2/133/17 8/119/18 48/15/19 49/115/20
f 7/12/21 1/1/22 43/123/23 44/120/24
f 73/107/25 17/18/26 18/110/27 72/20/28
f 68/21/29 69/22/30 46/23/31 19/112/32
f 67/25/33 68/111/34 19/24/35 20/114/36
f 66/27/37 67/113/38 20/26/39 41/28/40
f 13/29/41 4/129/42 6/135/43 14/102/44
f 15/104/45 47/34/46 48/117/47 8/14/48
f 16/106/49 15/33/50 8/118/51 2/134/52
f 50/36/53 16/35/54 2/13/55 49/16/56
f 83/99/57 13/29/41 14/102/44 82/38/58
f 78/39/59 79/40/60 47/34/46 15/104/45
f 77/41/61 78/103/62 15/33/50 16/106/49
f 50/36/53 76/42/63 77/105/64 16/35/54
f 74/43/65 63/44/66 53/45/67 54/46/68
f 23/128/69 22/48/70 9/6/71 3/132/72
f 24/146/73 23/47/74 3/5/75 5/145/76
f 5/8/77 10/7/78 25/50/79 24/49/80
f 26/51/81 71/52/82 72/109/83 18/19/84
f 27/53/85 81/54/86 82/101/87 14/32/88
f 28/144/89 27/53/85 14/32/88 6/31/90
f 29/125/91 28/55/92 6/143/93 4/130/94
f 13/100/95 30/57/96 29/56/97 4/30/98
f 83/37/99 84/58/100 30/57/96 13/100/95
f 64/59/101 65/60/102 31/61/103 21/62/104
f 33/63/105 32/64/106 22/48/70 23/128/69
f 34/127/107 33/124/108 23/47/74 24/146/73
f 24/49/80 25/50/79 35/66/109 34/65/110
f 36/67/111 70/68/112 71/52/82 26/51/81
f 37/69/113 80/70/114 81/54/86 27/53/85
f 38/126/115 37/69/113 27/53/85 28/144/89
f 39/116/116 38/71/117 28/55/92 29/125/91
f 30/57/96 40/73/118 39/72/119 29/56/97
f 30/57/96 84/58/100 85/74/120 40/73/118
f 65/60/102 66/27/37 41/28/40 31/61/103
f 60/75/121 59/76/122 61/77/123 62/78/124
f 44/120/24 43/123/23 33/124/108 34/127/107
f 34/65/110 35/66/109 45/10/10 44/9/9
f 46/23/31 69/22/30 70/68/112 36/67/111
f 47/34/46 79/40/60 80/70/114 37/69/113
f 48/117/47 47/34/46 37/69/113 38/126/115
f 49/115/20 48/15/19 38/71/117 39/116/116
f 40/73/118 50/36/53 49/16/56 39/72/119
f 55/79/125 86/80/126 75/81/127 58/82/128
f 9/6/129 22/48/130 93/83/131 94/84/132
f 64/59/133 21/62/134 97/85/135 98/86/136
f 21/62/137 17/108/138 96/87/139 97/85/140
f 17/108/26 73/17/25 95/88/141 96/87/142
f 40/73/143 85/74/144 86/80/145 55/79/146
f 31/61/147 41/28/148 57/89/149 56/90/150
f 76/42/151 50/36/152 58/82/153 75/81/154
f 50/36/155 40/73/156 55/79/157 58/82/158
f 43/4/159 42/3/160 59/76/161 60/75/162
f 42/3/163 32/64/164 61/77/165 59/76/166
f 32/64/167 33/63/168 62/78/169 61/77/170
f 33/63/108 43/4/23 60/75/171 62/78/172
f 22/48/173 64/59/133 98/86/136 93/83/174
f 22/48/70 32/64/106 65/60/102 64/59/101
f 32/64/106 42/3/3 66/27/37 65/60/102
f 42/3/3 12/2/2 67/113/38 66/27/37
f 12/136/15 11/137/14 68/111/34 67/25/33
f 11/11/11 45/10/10 69/22/30 68/21/29
f 70/68/112 69/22/30 45/10/10 35/66/109
f 71/52/82 70/68/112 35/66/109 25/50/79
f 72/109/83 71/52/82 25/50/79 10/7/78
f 9/139/6 73/107/25 72/20/28 10/138/7
f 95/88/141 73/17/25 9/6/6 94/84/175
f 52/91/176 51/92/177 63/44/66 74/43/65
f 41/28/178 76/42/151 75/81/154 57/89/179
f 77/105/64 76/42/63 41/28/40 20/26/39
f 20/114/36 19/24/35 78/103/62 77/41/61
f 19/112/32 46/23/31 79/40/60 78/39/59
f 80/70/114 79/40/60 46/23/31 36/67/111
f 81/54/86 80/70/114 36/67/111 26/51/81
f 82/101/87 81/54/86 26/51/81 18/19/84
f 17/18/26 83/99/57 82/38/58 18/110/27
f 17/108/180 21/62/104 84/58/100 83/37/99
f 85/74/120 84/58/100 21/62/104 31/61/103
f 86/80/145 85/74/144 31/61/181 56/90/182
f 75/81/127 86/80/126 56/90/183 57/89/184
f 88/93/185 87/94/186 51/92/187 52/91/188
f 74/43/189 89/95/190 88/93/191 52/91/192
f 90/96/193 89/95/190 74/43/189 54/46/194
f 91/97/195 90/96/196 54/46/197 53/45/198
f 92/98/199 91/97/200 53/45/201 63/44/202
f 87/94/203 92/98/199 63/44/202 51/92/204
f 94/84/132 93/83/131 87/94/186 88/93/185
f 89/95/190 95/88/141 94/84/175 88/93/191
f 96/87/142 95/88/141 89/95/190 90/96/193
f 97/85/140 96/87/139 90/96/196 91/97/195
f 98/86/136 97/85/135 91/97/200 92/98/199
f 93/83/174 98/86/136 92/98/199 87/94/203
