# This file uses meters as units for non-parametric coordinates.

v -50.393067 -0.093033 50.000000
v 50.393067 -0.093033 50.000000
v -38.634695 9.906967 50.000000
v 38.634695 9.906967 50.000000
v -38.634695 9.906967 -50.000000
v 38.634695 9.906967 -50.000000
v -50.393067 -0.093033 -50.000000
v 50.393067 -0.093033 -50.000000
vt 0.055533 0.490176
vt 0.056103 0.738642
vt 0.415283 0.490143
vt 0.106633 0.490172
vt 0.415302 0.691436
vt 0.106652 0.691465
vt 0.466401 0.691431
vt 0.458694 0.939925
vt 0.462272 0.711561
vt 0.056108 0.939935
vt 0.462249 0.470009
vt 0.466383 0.490138
vt 0.059685 0.711598
vt 0.055552 0.691469
vt 0.059663 0.470047
vt 0.458689 0.738632
vn 0.000000 0.000000 1.000000
vn 0.000000 0.000000 1.000000
vn 0.000000 0.000000 1.000000
vn 0.000000 0.000000 1.000000
vn 0.000000 1.000000 0.000000
vn 0.000000 1.000000 0.000000
vn 0.000000 1.000000 0.000000
vn 0.000000 1.000000 0.000000
vn 0.000000 0.000000 -1.000000
vn 0.000000 0.000000 -1.000000
vn 0.000000 0.000000 -1.000000
vn 0.000000 0.000000 -1.000000
vn 0.000000 -1.000000 0.000000
vn 0.000000 -1.000000 0.000000
vn 0.000000 -1.000000 0.000000
vn 0.000000 -1.000000 0.000000
vn 0.647851 0.761767 0.000000
vn 0.647851 0.761767 0.000000
vn 0.647851 0.761767 0.000000
vn 0.647851 0.761767 0.000000
vn -0.647851 0.761767 0.000000
vn -0.647851 0.761767 0.000000
vn -0.647851 0.761767 0.000000
vn -0.647851 0.761767 0.000000
f 1/15/1 2/11/2 4/3/3 3/4/4
f 3/4/5 4/3/6 6/5/7 5/6/8
f 5/6/9 6/5/10 8/9/11 7/13/12
f 7/8/13 8/10/14 2/2/15 1/16/16
f 2/12/17 8/7/18 6/5/19 4/3/20
f 7/14/21 1/1/22 3/4/23 5/6/24
