# This file uses meters as units for non-parametric coordinates.

v -50.393067 -0.093033 50.000000
v 50.393067 -0.093033 50.000000
v -50.393067 9.906967 50.000000
v 50.393067 9.906967 50.000000
v -50.393067 9.906967 -50.000000
v 50.393067 9.906967 -50.000000
v -50.393067 -0.093033 -50.000000
v 50.393067 -0.093033 -50.000000
vt 0.498967 0.487155
vt 0.518957 0.731409
vt 0.921682 0.487098
vt 0.519096 0.487153
vt 0.921709 0.688391
vt 0.519123 0.688445
vt 0.941838 0.688388
vt 0.921848 0.932092
vt 0.921712 0.708520
vt 0.519262 0.932702
vt 0.921679 0.466969
vt 0.941811 0.487095
vt 0.519126 0.708575
vt 0.498994 0.688448
vt 0.519093 0.467023
vt 0.921543 0.730799
vn 0.000000 0.000000 1.000000
vn 0.000000 0.000000 1.000000
vn 0.000000 0.000000 1.000000
vn 0.000000 0.000000 1.000000
vn 0.000000 1.000000 0.000000
vn 0.000000 1.000000 0.000000
vn 0.000000 1.000000 0.000000
vn 0.000000 1.000000 0.000000
vn 0.000000 0.000000 -1.000000
vn 0.000000 0.000000 -1.000000
vn 0.000000 0.000000 -1.000000
vn 0.000000 0.000000 -1.000000
vn 0.000000 -1.000000 0.000000
vn 0.000000 -1.000000 0.000000
vn 0.000000 -1.000000 0.000000
vn 0.000000 -1.000000 0.000000
vn 1.000000 0.000000 0.000000
vn 1.000000 0.000000 0.000000
vn 1.000000 0.000000 0.000000
vn 1.000000 0.000000 0.000000
vn -1.000000 0.000000 0.000000
vn -1.000000 0.000000 0.000000
vn -1.000000 0.000000 0.000000
vn -1.000000 0.000000 0.000000
f 1/15/1 2/11/2 4/3/3 3/4/4
f 3/4/5 4/3/6 6/5/7 5/6/8
f 5/6/9 6/5/10 8/9/11 7/13/12
f 7/8/13 8/10/14 2/2/15 1/16/16
f 2/12/17 8/7/18 6/5/19 4/3/20
f 7/14/21 1/1/22 3/4/23 5/6/24
