# This file uses meters as units for non-parametric coordinates.

v -50.393067 -0.093033 50.000000
v 50.393067 -0.093033 50.000000
v -38.974781 9.906967 50.000000
v 50.393075 9.906967 50.000000
v -38.974781 9.906967 -50.000000
v 50.393075 9.906967 -50.000000
v -50.393067 -0.093033 -50.000000
v 50.393067 -0.093033 -50.000000
vt 0.082642 0.173375
vt 0.537709 0.177395
vt 0.489472 0.173007
vt 0.132496 0.173330
vt 0.489654 0.374300
vt 0.132678 0.374623
vt 0.509784 0.374282
vt 0.940273 0.378730
vt 0.489673 0.394429
vt 0.537688 0.378687
vt 0.489454 0.152878
vt 0.509601 0.172989
vt 0.087087 0.394793
vt 0.082824 0.374668
vt 0.086868 0.153242
vt 0.940295 0.177437
vn 0.000000 0.000000 1.000000
vn 0.000000 0.000000 1.000000
vn 0.000000 0.000000 1.000000
vn 0.000000 0.000000 1.000000
vn 0.000000 1.000000 0.000000
vn 0.000000 1.000000 0.000000
vn 0.000000 1.000000 0.000000
vn 0.000000 1.000000 0.000000
vn 0.000000 0.000000 -1.000000
vn 0.000000 0.000000 -1.000000
vn 0.000000 0.000000 -1.000000
vn 0.000000 0.000000 -1.000000
vn 0.000000 -1.000000 0.000000
vn 0.000000 -1.000000 0.000000
vn 0.000000 -1.000000 0.000000
vn 0.000000 -1.000000 0.000000
vn 1.000000 -0.000001 0.000000
vn 1.000000 -0.000001 0.000000
vn 1.000000 -0.000001 0.000000
vn 1.000000 -0.000001 0.000000
vn -0.658840 0.752283 0.000000
vn -0.658840 0.752283 0.000000
vn -0.658840 0.752283 0.000000
vn -0.658840 0.752283 0.000000
f 1/15/1 2/11/2 4/3/3 3/4/4
f 3/4/5 4/3/6 6/5/7 5/6/8
f 5/6/9 6/5/10 8/9/11 7/13/12
f 7/8/13 8/10/14 2/2/15 1/16/16
f 2/12/17 8/7/18 6/5/19 4/3/20
f 7/14/21 1/1/22 3/4/23 5/6/24
