# This file uses meters as units for non-parametric coordinates.

mtllib edge_1.mtl
g default
v -100.000000 185.906968 50.000000
v 100.000000 185.906968 50.000000
v -77.341553 285.906983 50.000000
v 100.000015 285.906983 50.000000
v -77.341553 285.906983 -50.000000
v 100.000015 285.906983 -50.000000
v -100.000000 185.906968 -50.000000
v 100.000000 185.906968 -50.000000
vt 0.399137 0.649686
vt 0.540041 0.649686
vt 0.541059 0.817766
vt 0.399137 0.817766
vt 0.032550 0.649686
vt 0.172750 0.649686
vt 0.172750 0.817766
vt 0.032550 0.817766
vt 0.399137 0.985903
vt 0.172750 0.985903
vt 0.172750 0.466947
vt 0.399137 0.466947
vt 0.221596 0.437689
vt 0.024616 0.437721
vt 0.024581 0.228894
vt 0.221596 0.228859
vn 0.000000 0.000000 1.000000
vn 0.000000 0.000000 1.000000
vn 0.000000 0.000000 1.000000
vn 0.000000 0.000000 1.000000
vn 0.000000 1.000000 0.000000
vn 0.000000 1.000000 0.000000
vn 0.000000 1.000000 0.000000
vn 0.000000 1.000000 0.000000
vn 0.000000 0.000000 -1.000000
vn 0.000000 0.000000 -1.000000
vn 0.000000 0.000000 -1.000000
vn 0.000000 0.000000 -1.000000
vn 0.000000 -1.000000 0.000000
vn 0.000000 -1.000000 0.000000
vn 0.000000 -1.000000 0.000000
vn 0.000000 -1.000000 0.000000
vn 1.000000 -0.000000 0.000000
vn 1.000000 -0.000000 0.000000
vn 1.000000 -0.000000 0.000000
vn 1.000000 -0.000000 0.000000
vn -0.975278 0.220983 0.000000
vn -0.975278 0.220983 0.000000
vn -0.975278 0.220983 0.000000
vn -0.975278 0.220983 0.000000
s off
g edge_2
usemtl initialShadingGroup
f 1/6/1 2/1/2 4/4/3 3/7/4
f 3/7/5 4/4/6 6/9/7 5/10/8
f 5/13/9 6/14/10 8/15/11 7/16/12
f 7/11/13 8/12/14 2/1/15 1/6/16
f 2/1/17 8/2/18 6/3/19 4/4/20
f 7/5/21 1/6/22 3/7/23 5/8/24
