# This file uses meters as units for non-parametric coordinates.

mtllib large_circle.mtl
g default
v 200.000000 0.000000 0.000000
v 190.211304 0.000000 -30.901707
v 161.803406 0.000000 -58.778538
v 117.557068 0.000000 -80.901711
v 61.803436 0.000000 -95.105667
v 0.000031 0.000000 -100.000015
v -61.803391 0.000000 -95.105659
v -117.557053 0.000000 -80.901703
v -161.803406 0.000000 -58.778530
v -190.211304 0.000000 -30.901701
v -200.000000 0.000000 -0.000000
v 197.537720 15.643437 0.000000
v 187.869507 15.643437 -30.521255
v 159.811340 15.643437 -58.054878
v 116.109741 15.643437 -79.905678
v 61.042511 15.643437 -93.934761
v 0.000031 15.643437 -98.768852
v -61.042496 15.643437 -93.934753
v -116.109726 15.643437 -79.905678
v -159.811340 15.643437 -58.054871
v -187.869492 15.643437 -30.521250
v -197.537674 15.643437 -0.000000
v 190.211304 30.901697 0.000000
v 180.901733 30.901697 -29.389269
v 156.531342 36.316322 -56.858997
v 111.803406 30.901697 -76.942101
v 58.778564 30.901697 -90.450867
v 0.000031 30.901697 -95.105659
v -58.778519 30.901697 -90.450859
v -111.803391 30.901697 -76.942093
v -153.884186 30.901697 -55.901703
v -180.901703 30.901697 -29.389263
v -190.211304 30.901697 -0.000000
v 178.201294 45.399052 0.000000
v 169.479553 45.399052 -27.533623
v 151.287476 59.961815 -62.470276
v 104.987518 45.992416 -72.083954
v 55.067261 53.520542 -84.739777
v 0.000031 45.399048 -89.100662
v -63.913864 53.169827 -92.681778
v -104.744110 45.399052 -72.083946
v -144.167892 45.399052 -52.372055
v -169.479523 45.399052 -27.533617
v -178.201309 45.399052 -0.000000
v 161.803436 58.778526 0.000000
v 153.884216 58.778526 -25.245369
v 132.983734 63.037178 -50.635254
v 103.488770 79.212387 -65.450859
v 50.000031 76.901070 -76.942101
v 0.000031 58.778526 -80.901711
v -69.740616 76.118416 -94.664108
v -95.216354 60.638355 -65.450859
v -131.620941 70.861443 -47.552834
v -153.884186 58.778526 -25.000002
v -161.803406 58.778526 -0.000000
v 141.421356 70.710678 0.000000
v 134.499725 84.626205 -21.850805
v 114.933533 71.981209 -41.562702
v 98.659027 108.573837 -57.206150
v 43.701630 78.537331 -67.249863
v 0.000031 70.710678 -70.710686
v -52.202408 78.963211 -74.157051
v -83.179718 74.920235 -57.206146
v -116.030380 97.894478 -41.562698
v -134.812454 75.964996 -21.850801
v -141.421356 70.710678 -0.000000
v 117.557068 80.901703 0.000000
v 111.803406 80.901703 -18.163567
v 98.386230 88.898178 -34.549156
v 76.846161 99.787041 -47.552834
v 36.327148 80.901703 -55.901711
v -1.104248 82.946823 -58.778534
v -46.569931 103.086861 -55.901707
v -69.098312 92.146889 -47.552830
v -95.716843 91.169464 -34.549152
v -112.251022 88.421783 -18.163565
v -117.557053 80.901703 -0.000000
v 90.798096 89.100655 0.000000
v 86.354156 89.100655 -14.029081
v 73.635223 89.534492 -26.684898
v 53.369812 89.100655 -36.728611
v 28.058167 96.867462 -43.177071
v -3.293060 95.199409 -45.399055
v -45.101791 117.198616 -43.177067
v -57.806259 101.194389 -36.728607
v -73.457199 90.781906 -26.684895
v -86.354141 89.100655 -14.029078
v -90.798111 89.100655 -0.000000
v 61.803436 95.105652 0.000000
v 58.778564 95.105652 -9.549153
v 50.000031 95.105652 -18.163567
v 36.327148 95.105652 -25.000006
v 19.098328 95.105652 -29.389269
v -1.828400 98.491882 -30.901705
v -29.170807 106.030769 -29.389267
v -44.147659 106.821304 -25.000004
v -50.890030 96.828964 -18.163567
v -58.778519 95.105652 -9.549151
v -61.803391 95.105652 -0.000000
v 31.286926 98.768837 0.000000
v 29.755615 98.768837 -4.834092
v 25.311646 98.768837 -9.194990
v 18.389984 98.768837 -12.655817
v 9.668213 98.768837 -14.877806
v 0.000000 98.768837 -15.643450
v -10.209473 99.481873 -14.877805
v -19.393555 99.352959 -12.655816
v -25.777496 98.752998 -9.194989
v -29.755585 98.618439 -4.834091
v -31.286896 98.768837 -0.000000
v 0.000000 100.000000 -0.000000
vt 0.046164 0.602034
vt 0.100120 0.572204
vt 0.113306 0.598630
vt 0.061294 0.627833
vt 0.173727 0.544680
vt 0.183294 0.572495
vt 0.271331 0.526542
vt 0.277144 0.555511
vt 0.384993 0.517751
vt 0.387413 0.547112
vt 0.504529 0.518459
vt 0.504436 0.548085
vt 0.622768 0.519022
vt 0.620228 0.548202
vt 0.731492 0.531073
vt 0.726574 0.560358
vt 0.823320 0.541820
vt 0.815972 0.570603
vt 0.897321 0.558364
vt 0.886788 0.585839
vt 0.953836 0.582179
vt 0.941304 0.609231
vt 0.130116 0.625161
vt 0.080571 0.654253
vt 0.196204 0.608247
vt 0.286771 0.584392
vt 0.392114 0.576329
vt 0.504477 0.577958
vt 0.615656 0.576893
vt 0.718174 0.589844
vt 0.804493 0.599494
vt 0.872572 0.613384
vt 0.924624 0.637061
vt 0.151189 0.653425
vt 0.104924 0.681729
vt 0.220069 0.642263
vt 0.299813 0.615050
vt 0.399964 0.619482
vt 0.504389 0.608223
vt 0.621650 0.616905
vt 0.706089 0.619692
vt 0.788893 0.629180
vt 0.854122 0.642115
vt 0.902761 0.666015
vt 0.150583 0.768134
vt 0.136179 0.800640
vt 0.243166 0.669316
vt 0.309331 0.675055
vt 0.408957 0.665607
vt 0.503923 0.639152
vt 0.625824 0.654077
vt 0.691043 0.654585
vt 0.766890 0.678860
vt 0.831302 0.672913
vt 0.875705 0.696078
vt 0.188385 0.782032
vt 0.166947 0.806953
vt 0.265812 0.706425
vt 0.326165 0.718469
vt 0.420964 0.684204
vt 0.502977 0.670036
vt 0.600860 0.685378
vt 0.671904 0.692781
vt 0.519460 0.856443
vt 0.531710 0.900164
vt 0.845316 0.728258
vt 0.215854 0.788587
vt 0.203565 0.811760
vt 0.240090 0.771420
vt 0.356282 0.734427
vt 0.434818 0.705844
vt 0.504524 0.703177
vt 0.592088 0.739866
vt 0.644539 0.733445
vt 0.490398 0.855563
vt 0.501102 0.884630
vt 0.496627 0.911129
vt 0.249335 0.801224
vt 0.239668 0.818060
vt 0.269640 0.788630
vt 0.298811 0.782397
vt 0.334000 0.783387
vt 0.373730 0.790893
vt 0.432044 0.806203
vt 0.445783 0.829314
vt 0.459794 0.852288
vt 0.467860 0.874518
vt 0.464973 0.893473
vt 0.283797 0.816055
vt 0.276907 0.827198
vt 0.297709 0.808025
vt 0.317369 0.803650
vt 0.340827 0.803906
vt 0.368208 0.809423
vt 0.404091 0.819762
vt 0.421347 0.830934
vt 0.427004 0.848392
vt 0.431871 0.863264
vt 0.430196 0.876342
vt 0.319290 0.831814
vt 0.315718 0.837428
vt 0.326398 0.827753
vt 0.336364 0.825678
vt 0.348254 0.825755
vt 0.360878 0.828073
vt 0.373754 0.832686
vt 0.384558 0.839027
vt 0.391314 0.845990
vt 0.394269 0.853206
vt 0.393883 0.859854
vt 0.355353 0.847633
vt 0.185622 0.737800
vt 0.803835 0.712726
vt 0.524774 0.930036
vt 0.741450 0.732899
vt 0.177215 0.685278
vt 0.134111 0.710446
vt 0.700552 0.742298
vt 0.665215 0.768475
vt 0.272533 0.757774
vt 0.402964 0.746725
vt 0.212188 0.753926
vt 0.299375 0.746668
vt 0.626369 0.763755
vt 0.587255 0.775133
vt 0.507212 0.737806
vt 0.451090 0.743520
vn 0.942760 0.148392 -0.298637
vn 0.835255 0.137981 -0.532270
vn 0.821588 0.237108 -0.518433
vn 0.915316 0.279518 -0.289944
vn 0.569647 0.110217 -0.814466
vn 0.561056 0.167455 -0.810664
vn 0.344108 0.091336 -0.934477
vn 0.337755 0.155355 -0.928325
vn 0.161730 0.081479 -0.983466
vn 0.160031 0.160616 -0.973957
vn -0.000000 0.078459 -0.996917
vn -0.000000 0.154854 -0.987937
vn -0.161730 0.081479 -0.983466
vn -0.160031 0.160616 -0.973957
vn -0.344108 0.091336 -0.934477
vn -0.339594 0.179246 -0.923335
vn -0.569647 0.110216 -0.814466
vn -0.559149 0.214074 -0.800952
vn -0.835255 0.137981 -0.532269
vn -0.813011 0.262896 -0.519518
vn -0.942759 0.148394 -0.298637
vn -0.915316 0.279518 -0.289943
vn 0.799839 0.396318 -0.450765
vn 0.818224 0.513158 -0.259187
vn 0.579074 0.214580 -0.786529
vn 0.300148 0.203908 -0.931844
vn 0.155178 0.282480 -0.946639
vn 0.013754 0.218069 -0.975836
vn -0.143837 0.165489 -0.975666
vn -0.348886 0.280402 -0.894234
vn -0.520563 0.409327 -0.749311
vn -0.734312 0.487515 -0.472350
vn -0.818224 0.513157 -0.259188
vn 0.722353 0.634136 -0.275822
vn 0.695581 0.683956 -0.219935
vn 0.496396 0.514063 -0.699522
vn 0.262007 0.292022 -0.919824
vn 0.140229 0.316650 -0.938120
vn 0.049884 0.244893 -0.968266
vn -0.148007 0.148984 -0.977700
vn -0.413263 0.282566 -0.865662
vn -0.496781 0.503566 -0.706845
vn -0.657750 0.631402 -0.410727
vn -0.695271 0.684172 -0.220240
vn 0.560104 0.812893 -0.159651
vn 0.655441 0.747501 -0.107884
vn 0.456313 0.722575 -0.519291
vn 0.330134 0.478070 -0.813917
vn 0.064184 0.438830 -0.896275
vn 0.088600 0.513321 -0.853611
vn -0.215008 0.620181 -0.754418
vn -0.424317 0.481012 -0.767191
vn -0.499450 0.544827 -0.673583
vn -0.658085 0.686977 -0.308199
vn -0.606649 0.780359 -0.151715
vn 0.439834 0.875051 -0.202071
vn 0.558181 0.825562 0.082960
vn 0.587571 0.766511 -0.259272
vn 0.279792 0.889009 -0.362462
vn -0.164494 0.776164 -0.608697
vn 0.104133 0.766074 -0.634261
vn -0.016288 0.808864 -0.587771
vn -0.302562 0.749375 -0.588977
vn -0.341555 0.801758 -0.490432
vn -0.609507 0.791962 -0.036018
vn -0.539602 0.841913 -0.003465
vn 0.226489 0.972924 -0.046066
vn 0.210521 0.967414 0.140680
vn 0.283632 0.902251 0.324801
vn -0.138628 0.987102 0.080080
vn -0.116064 0.868567 -0.481789
vn 0.143785 0.687504 -0.711804
vn -0.031682 0.707667 -0.705836
vn -0.368788 0.798686 -0.475496
vn -0.072873 0.986280 -0.148125
vn -0.238101 0.938454 0.250226
vn -0.356280 0.920710 0.159241
vn 0.221024 0.975088 -0.018749
vn 0.261152 0.961747 -0.082725
vn 0.092066 0.983910 0.153117
vn 0.014212 0.989333 -0.144979
vn 0.054111 0.910525 -0.409897
vn 0.235972 0.830946 -0.503831
vn 0.025786 0.939110 -0.342648
vn -0.497932 0.864328 0.070714
vn -0.228366 0.971857 0.057823
vn -0.134717 0.988675 0.066138
vn -0.186984 0.978136 0.091031
vn 0.165132 0.980765 -0.104070
vn 0.177570 0.982499 -0.056249
vn 0.130434 0.970040 -0.204964
vn 0.130924 0.984062 -0.120337
vn 0.083307 0.993601 -0.076266
vn 0.222150 0.974960 -0.010087
vn 0.235238 0.959320 0.156104
vn -0.255067 0.844376 0.471137
vn -0.287573 0.926291 0.243490
vn -0.180809 0.982443 -0.045968
vn -0.176598 0.982510 -0.059052
vn 0.097122 0.992871 -0.069102
vn 0.104201 0.994008 -0.033008
vn 0.079169 0.988850 -0.126127
vn 0.054957 0.984450 -0.166845
vn 0.075656 0.989089 -0.126409
vn 0.142065 0.989323 -0.032522
vn 0.156794 0.983941 0.085296
vn 0.011655 0.943566 0.330979
vn -0.136545 0.922954 0.359878
vn -0.097908 0.995194 -0.001943
vn -0.101498 0.993752 -0.046422
vn 0.010611 0.998806 -0.047692
s 1
g circle_2
usemtl initialShadingGroup
f 1/1/1 2/2/2 13/3/3 12/4/4
f 2/2/2 3/5/5 14/6/6 13/3/3
f 3/5/5 4/7/7 15/8/8 14/6/6
f 4/7/7 5/9/9 16/10/10 15/8/8
f 5/9/9 6/11/11 17/12/12 16/10/10
f 6/11/11 7/13/13 18/14/14 17/12/12
f 7/13/13 8/15/15 19/16/16 18/14/14
f 8/15/15 9/17/17 20/18/18 19/16/16
f 9/17/17 10/19/19 21/20/20 20/18/18
f 10/19/19 11/21/21 22/22/22 21/20/20
f 12/4/4 13/3/3 24/23/23 23/24/24
f 13/3/3 14/6/6 25/25/25 24/23/23
f 14/6/6 15/8/8 26/26/26 25/25/25
f 15/8/8 16/10/10 27/27/27 26/26/26
f 16/10/10 17/12/12 28/28/28 27/27/27
f 17/12/12 18/14/14 29/29/29 28/28/28
f 18/14/14 19/16/16 30/30/30 29/29/29
f 19/16/16 20/18/18 31/31/31 30/30/30
f 20/18/18 21/20/20 32/32/32 31/31/31
f 21/20/20 22/22/22 33/33/33 32/32/32
f 23/24/24 24/23/23 35/34/34 34/35/35
f 24/23/23 25/25/25 36/36/36 35/34/34
f 25/25/25 26/26/26 37/37/37 36/36/36
f 26/26/26 27/27/27 38/38/38 37/37/37
f 27/27/27 28/28/28 39/39/39 38/38/38
f 28/28/28 29/29/29 40/40/40 39/39/39
f 29/29/29 30/30/30 41/41/41 40/40/40
f 30/30/30 31/31/31 42/42/42 41/41/41
f 31/31/31 32/32/32 43/43/43 42/42/42
f 32/32/32 33/33/33 44/44/44 43/43/43
f 34/35/35 35/34/34 46/116/45 45/117/46
f 35/34/34 36/36/36 47/47/47 46/116/45
f 36/36/36 37/37/37 48/48/48 47/47/47
f 37/37/37 38/38/38 49/49/49 48/48/48
f 38/38/38 39/39/39 50/50/50 49/49/49
f 39/39/39 40/40/40 51/51/51 50/50/50
f 40/40/40 41/41/41 52/52/52 51/51/51
f 41/41/41 42/42/42 53/53/53 52/52/52
f 42/42/42 43/43/43 54/54/54 53/53/53
f 43/43/43 44/44/44 55/55/55 54/54/54
f 45/46/46 46/45/45 57/56/56 56/57/57
f 46/45/45 47/112/47 58/122/58 57/56/56
f 47/47/47 48/48/48 59/59/59 58/58/58
f 48/48/48 49/49/49 60/60/60 59/59/59
f 49/49/49 50/50/50 61/61/61 60/60/60
f 50/50/50 51/51/51 62/62/62 61/61/61
f 51/51/51 52/52/52 63/63/63 62/62/62
f 52/52/52 53/53/53 64/115/64 63/63/63
f 53/53/53 54/54/54 65/113/65 64/115/64
f 54/54/54 55/55/55 66/66/66 65/113/65
f 56/57/57 57/56/56 68/67/67 67/68/68
f 57/56/56 58/122/58 69/69/69 68/67/67
f 58/58/58 59/59/59 70/70/70 69/123/69
f 59/59/59 60/60/60 71/71/71 70/70/70
f 60/60/60 61/61/61 72/72/72 71/71/71
f 61/61/61 62/62/62 73/73/73 72/72/72
f 62/62/62 63/63/63 74/74/74 73/73/73
f 63/63/63 64/115/64 75/118/75 74/74/74
f 64/64/64 65/65/65 76/76/76 75/75/75
f 65/65/65 66/114/66 77/77/77 76/76/76
f 67/68/68 68/67/67 79/78/78 78/79/79
f 68/67/67 69/69/69 80/80/80 79/78/78
f 69/69/69 70/120/70 81/81/81 80/80/80
f 70/70/70 71/71/71 82/127/82 81/121/81
f 71/71/71 72/72/72 83/126/83 82/127/82
f 72/72/72 73/73/73 84/125/84 83/126/83
f 73/73/73 74/74/74 85/124/85 84/125/84
f 74/74/74 75/118/75 86/119/86 85/124/85
f 75/75/75 76/76/76 87/87/87 86/86/86
f 76/76/76 77/77/77 88/88/88 87/87/87
f 78/79/79 79/78/78 90/89/89 89/90/90
f 79/78/78 80/80/80 91/91/91 90/89/89
f 80/80/80 81/81/81 92/92/92 91/91/91
f 81/81/81 82/82/82 93/93/93 92/92/92
f 82/82/82 83/83/83 94/94/94 93/93/93
f 83/83/83 84/84/84 95/95/95 94/94/94
f 84/84/84 85/85/85 96/96/96 95/95/95
f 85/85/85 86/86/86 97/97/97 96/96/96
f 86/86/86 87/87/87 98/98/98 97/97/97
f 87/87/87 88/88/88 99/99/99 98/98/98
f 89/90/90 90/89/89 101/100/100 100/101/101
f 90/89/89 91/91/91 102/102/102 101/100/100
f 91/91/91 92/92/92 103/103/103 102/102/102
f 92/92/92 93/93/93 104/104/104 103/103/103
f 93/93/93 94/94/94 105/105/105 104/104/104
f 94/94/94 95/95/95 106/106/106 105/105/105
f 95/95/95 96/96/96 107/107/107 106/106/106
f 96/96/96 97/97/97 108/108/108 107/107/107
f 97/97/97 98/98/98 109/109/109 108/108/108
f 98/98/98 99/99/99 110/110/110 109/109/109
f 100/101/101 101/100/100 111/111/111
f 101/100/100 102/102/102 111/111/111
f 102/102/102 103/103/103 111/111/111
f 103/103/103 104/104/104 111/111/111
f 104/104/104 105/105/105 111/111/111
f 105/105/105 106/106/106 111/111/111
f 106/106/106 107/107/107 111/111/111
f 107/107/107 108/108/108 111/111/111
f 108/108/108 109/109/109 111/111/111
f 109/109/109 110/110/110 111/111/111
