# This file uses meters as units for non-parametric coordinates.

mtllib Ramp_large.mtl
g default
v 447.022064 1.496517 50.000000
v 647.022095 1.496517 50.000000
v 447.022095 101.496513 50.000000
v 447.022095 101.496513 -50.000000
v 447.022064 1.496517 -50.000000
v 647.022095 1.496517 -50.000000
v 464.448792 93.697983 -50.000000
v 464.448792 93.697983 50.000000
v 468.994324 88.416611 50.000000
v 447.022095 97.508392 50.000000
v 447.022095 97.508392 -50.000000
v 468.994324 88.416611 -50.000000
v 489.690674 78.696022 50.000000
v 447.022095 84.517426 50.000000
v 447.022095 84.517426 -50.000000
v 489.690674 78.696022 -50.000000
v 496.792358 72.689728 50.000000
v 447.022064 79.262108 50.000000
v 447.022064 79.262108 -50.000000
v 496.792358 72.689728 -50.000000
v 511.745148 64.443108 50.000000
v 447.022064 68.911491 50.000000
v 447.022064 68.911491 -50.000000
v 511.745148 64.443108 -50.000000
v 520.716003 58.432354 50.000000
v 447.022064 59.986145 50.000000
v 447.022064 59.986145 -50.000000
v 520.716003 58.432354 -50.000000
v 552.507996 47.433975 50.000000
v 447.022064 48.586529 50.000000
v 447.022064 48.586529 -50.000000
v 552.507996 47.433975 -50.000000
v 555.899292 40.991714 50.000000
v 447.022064 45.646439 50.000000
v 447.022064 45.646439 -50.000000
v 555.899292 40.991714 -50.000000
v 571.002075 35.731483 50.000000
v 447.022064 39.766262 50.000000
v 447.022064 39.766262 -50.000000
v 571.002075 35.731483 -50.000000
v 594.309082 27.999649 50.000000
v 447.022064 29.156378 50.000000
v 447.022064 29.156378 -50.000000
v 594.309082 27.999649 -50.000000
v 596.714722 22.581953 50.000000
v 447.022064 24.298836 50.000000
v 447.022064 24.298836 -50.000000
v 596.714722 22.581953 -50.000000
v 623.607178 14.083702 50.000000
v 447.022064 14.583759 50.000000
v 447.022064 14.583759 -50.000000
v 623.607178 14.083702 -50.000000
v 627.532471 9.887741 50.000000
v 447.022064 10.876690 50.000000
v 447.022064 10.876690 -50.000000
v 627.532471 9.887741 -50.000000
v 638.156006 5.929550 50.000004
v 447.022064 4.485191 50.000004
v 447.022064 4.485195 -50.000000
v 638.156006 5.929550 -50.000000
vt 0.411155 0.505494
vt 0.619202 0.624473
vt 0.419909 0.572045
vt 0.411155 0.500306
vt 0.966408 0.803228
vt 0.593505 0.572075
vt 0.619216 0.798068
vt 0.584751 0.505480
vt 0.653722 0.572764
vt 0.593445 0.918732
vt 0.593440 0.951875
vt 0.411141 0.331898
vt 0.411142 0.338821
vt 0.661613 0.563596
vt 0.966421 0.964712
vt 0.593447 0.906636
vt 0.411144 0.361373
vt 0.697543 0.546725
vt 0.966419 0.942160
vt 0.593454 0.866942
vt 0.411144 0.370496
vt 0.709872 0.536299
vt 0.966419 0.933037
vt 0.593457 0.850796
vt 0.411146 0.388464
vt 0.735830 0.521985
vt 0.966417 0.915069
vt 0.593462 0.821153
vt 0.411147 0.403958
vt 0.751404 0.511552
vt 0.966416 0.899575
vt 0.593465 0.802407
vt 0.411149 0.423748
vt 0.806595 0.492463
vt 0.966414 0.879786
vt 0.593475 0.744009
vt 0.411149 0.428851
vt 0.812483 0.481281
vt 0.966414 0.874682
vt 0.593478 0.731370
vt 0.411150 0.439059
vt 0.838702 0.472151
vt 0.966413 0.864474
vt 0.593482 0.703608
vt 0.411151 0.457478
vt 0.879163 0.458732
vt 0.966411 0.846056
vt 0.593490 0.660980
vt 0.411152 0.465910
vt 0.883339 0.449327
vt 0.966411 0.837623
vt 0.593492 0.650689
vt 0.411153 0.482775
vt 0.930025 0.434578
vt 0.966410 0.820759
vt 0.593500 0.601730
vt 0.411154 0.489210
vt 0.936839 0.427295
vt 0.966409 0.814323
vt 0.593502 0.591755
vt 0.634608 0.805762
vt 0.593508 0.554867
vt 0.584750 0.500292
vt 0.966407 0.798040
vt 0.623482 0.417892
vt 0.623481 0.428987
vt 0.955282 0.420425
vt 0.419906 0.591725
vt 0.653051 0.812632
vt 0.584749 0.489197
vt 0.623481 0.435423
vt 0.419904 0.601700
vt 0.659865 0.819916
vt 0.584749 0.482761
vt 0.623479 0.452288
vt 0.419896 0.650659
vt 0.706551 0.834664
vt 0.584748 0.465896
vt 0.623479 0.460720
vt 0.419894 0.660950
vt 0.710728 0.844069
vt 0.584747 0.457464
vt 0.623477 0.479138
vt 0.419887 0.703578
vt 0.751189 0.857488
vt 0.584745 0.439046
vt 0.623476 0.489346
vt 0.419882 0.731340
vt 0.777407 0.866617
vt 0.584745 0.428838
vt 0.623476 0.494450
vt 0.419880 0.743979
vt 0.783295 0.877800
vt 0.584744 0.423734
vt 0.623475 0.514239
vt 0.419870 0.802377
vt 0.838486 0.896888
vt 0.584743 0.403945
vt 0.623473 0.529733
vt 0.419867 0.821123
vt 0.854060 0.907321
vt 0.584742 0.388451
vt 0.623472 0.547702
vt 0.419861 0.850766
vt 0.880018 0.921635
vt 0.584740 0.370483
vt 0.623471 0.556824
vt 0.419859 0.866912
vt 0.892348 0.932061
vt 0.623469 0.579376
vt 0.419852 0.906606
vt 0.928277 0.948932
vt 0.419844 0.951845
vt 0.936169 0.958100
vt 0.970674 0.412731
vt 0.419912 0.554837
vt 0.623482 0.412704
vt 0.966393 0.624444
vt 0.584737 0.331885
vt 0.966422 0.971635
vt 0.584738 0.338808
vt 0.584739 0.361360
vt 0.419850 0.918702
vt 0.623469 0.586299
vn 0.000000 -0.000001 1.000000
vn 0.000000 -0.000001 1.000000
vn 0.000000 -0.000001 1.000000
vn 0.000000 -0.000000 1.000000
vn 0.000000 0.000000 -1.000000
vn 0.000000 0.000000 -1.000000
vn 0.000000 0.000000 -1.000000
vn 0.000000 0.000000 -1.000000
vn 0.000000 -1.000000 0.000000
vn 0.000000 -1.000000 0.000000
vn 0.000000 -1.000000 0.000000
vn 0.000000 -1.000000 0.000000
vn 0.447211 0.894428 0.000000
vn 0.447211 0.894428 0.000000
vn 0.395452 0.918487 0.000000
vn 0.395452 0.918487 0.000000
vn -1.000000 0.000000 0.000000
vn -1.000000 0.000000 0.000000
vn -1.000000 0.000000 0.000000
vn -1.000000 0.000000 0.000000
vn 0.511518 0.859272 0.000000
vn 0.511518 0.859272 0.000000
vn 0.408470 0.912772 0.000000
vn 0.408470 0.912772 0.000000
vn 0.000000 0.000000 1.000000
vn 0.000000 0.000000 1.000000
vn 0.000000 0.000000 1.000000
vn 0.000000 0.000000 1.000000
vn -1.000000 0.000000 0.000000
vn -1.000000 0.000000 0.000000
vn -1.000000 0.000000 0.000000
vn -1.000000 0.000000 0.000000
vn 0.000000 0.000000 -1.000000
vn 0.000000 0.000000 -1.000000
vn 0.000000 0.000000 -1.000000
vn 0.000000 0.000000 -1.000000
vn 0.510906 0.859636 0.000000
vn 0.510906 0.859636 0.000000
vn 0.000000 0.000000 1.000000
vn 0.000000 0.000000 1.000000
vn -1.000000 0.000002 0.000000
vn -1.000000 0.000002 0.000000
vn 0.000000 0.000000 -1.000000
vn 0.000000 0.000000 -1.000000
vn 0.492412 0.870362 0.000000
vn 0.492412 0.870362 0.000000
vn 0.000000 0.000000 1.000000
vn 0.000000 0.000000 1.000000
vn -1.000000 0.000003 0.000000
vn -1.000000 0.000003 0.000000
vn 0.000000 0.000000 -1.000000
vn 0.000000 0.000000 -1.000000
vn 0.542778 0.839876 0.000000
vn 0.542778 0.839876 0.000000
vn 0.000000 0.000000 1.000000
vn 0.000000 0.000000 1.000000
vn -1.000000 0.000000 0.000000
vn -1.000000 0.000000 0.000000
vn -0.000000 0.000000 -1.000000
vn -0.000000 0.000000 -1.000000
vn 0.511937 0.859023 0.000000
vn 0.511937 0.859023 0.000000
vn 0.000000 0.000000 1.000000
vn 0.000000 0.000000 1.000000
vn -1.000000 0.000000 0.000000
vn -1.000000 0.000000 0.000000
vn -0.000000 0.000000 -1.000000
vn -0.000000 0.000000 -1.000000
vn 0.385090 0.922879 0.000000
vn 0.385090 0.922879 0.000000
vn 0.000000 0.000000 1.000000
vn 0.000000 0.000000 1.000000
vn -1.000000 0.000000 0.000000
vn -1.000000 0.000000 0.000000
vn 0.000000 0.000000 -1.000000
vn 0.000000 0.000000 -1.000000
vn 0.444135 0.895960 0.000000
vn 0.444135 0.895960 0.000000
vn 0.000000 0.000000 1.000000
vn 0.000000 0.000000 1.000000
vn -1.000000 0.000000 0.000000
vn -1.000000 0.000000 0.000000
vn 0.000000 0.000000 -1.000000
vn 0.000000 0.000000 -1.000000
vn 0.534712 0.845034 0.000000
vn 0.534712 0.845034 0.000000
vn -0.000000 0.000000 1.000000
vn -0.000000 0.000000 1.000000
vn -1.000000 0.000000 0.000000
vn -1.000000 0.000000 0.000000
vn -0.000000 0.000000 -1.000000
vn -0.000000 0.000000 -1.000000
vn 0.320416 0.947277 0.000000
vn 0.320416 0.947277 0.000000
vn -0.000000 0.000000 1.000000
vn -0.000000 0.000000 1.000000
vn -1.000000 0.000000 0.000000
vn -1.000000 0.000000 0.000000
vn 0.000000 0.000000 -1.000000
vn -0.000000 0.000000 -1.000000
vn 0.455317 0.890329 0.000000
vn 0.455317 0.890329 0.000000
vn 0.000000 0.000000 1.000000
vn 0.000000 0.000000 1.000000
vn -1.000000 0.000000 0.000000
vn -1.000000 0.000000 0.000000
vn 0.000000 0.000000 -1.000000
vn 0.000000 0.000000 -1.000000
vn 0.429040 0.903285 0.000000
vn 0.429040 0.903285 0.000000
vn 0.000000 0.000000 1.000000
vn -0.000000 0.000000 1.000000
vn -1.000000 0.000000 0.000000
vn -1.000000 0.000000 0.000000
vn 0.000000 0.000000 -1.000000
vn 0.000000 0.000000 -1.000000
vn 0.380867 0.924630 0.000000
vn 0.380867 0.924630 0.000000
vn -0.000000 0.000000 1.000000
vn -0.000000 0.000001 1.000000
vn -1.000000 0.000000 0.000000
vn -1.000000 0.000000 0.000000
vn 0.000000 0.000000 -1.000000
vn 0.000000 0.000000 -1.000000
vn 0.488915 0.872332 0.000000
vn 0.488915 0.872332 0.000000
s 1
g ramp_2
usemtl lambert2SG
f 1/117/1 2/115/2 57/67/3 58/65/4
s 2
f 59/5/5 60/61/6 6/7/7 5/64/8
s off
f 5/64/9 6/7/10 2/2/11 1/118/12
s 3
f 2/116/13 6/62/14 60/6/15 57/3/16
s 4
f 5/8/17 1/1/18 58/4/19 59/63/20
s 3
f 8/123/21 7/10/22 4/11/23 3/113/24
s 1
f 10/110/25 9/14/26 8/9/27 3/124/28
s 4
f 11/121/29 10/13/30 3/12/31 4/119/32
s 2
f 4/120/33 7/114/34 12/112/35 11/15/36
s 3
f 9/111/37 12/16/38 7/10/22 8/123/21
s 1
f 14/107/39 13/18/40 9/14/26 10/110/25
s 4
f 15/122/41 14/17/42 10/13/30 11/121/29
s 2
f 11/15/36 12/112/35 16/109/43 15/19/44
s 3
f 13/108/45 16/20/46 12/16/38 9/111/37
s 1
f 18/103/47 17/22/48 13/18/40 14/107/39
s 4
f 19/106/49 18/21/50 14/17/42 15/122/41
s 2
f 15/19/44 16/109/43 20/105/51 19/23/52
s 3
f 17/104/53 20/24/54 16/20/46 13/108/45
s 1
f 22/99/55 21/26/56 17/22/48 18/103/47
s 4
f 23/102/57 22/25/58 18/21/50 19/106/49
s 2
f 19/23/52 20/105/51 24/101/59 23/27/60
s 3
f 21/100/61 24/28/62 20/24/54 17/104/53
s 1
f 26/95/63 25/30/64 21/26/56 22/99/55
s 4
f 27/98/65 26/29/66 22/25/58 23/102/57
s 2
f 23/27/60 24/101/59 28/97/67 27/31/68
s 3
f 25/96/69 28/32/70 24/28/62 21/100/61
s 1
f 30/91/71 29/34/72 25/30/64 26/95/63
s 4
f 31/94/73 30/33/74 26/29/66 27/98/65
s 2
f 27/31/68 28/97/67 32/93/75 31/35/76
s 3
f 29/92/77 32/36/78 28/32/70 25/96/69
s 1
f 34/87/79 33/38/80 29/34/72 30/91/71
s 4
f 35/90/81 34/37/82 30/33/74 31/94/73
s 2
f 31/35/76 32/93/75 36/89/83 35/39/84
s 3
f 33/88/85 36/40/86 32/36/78 29/92/77
s 1
f 38/83/87 37/42/88 33/38/80 34/87/79
s 4
f 39/86/89 38/41/90 34/37/82 35/90/81
s 2
f 35/39/84 36/89/83 40/85/91 39/43/92
s 3
f 37/84/93 40/44/94 36/40/86 33/88/85
s 1
f 42/79/95 41/46/96 37/42/88 38/83/87
s 4
f 43/82/97 42/45/98 38/41/90 39/86/89
s 2
f 39/43/92 40/85/91 44/81/99 43/47/100
s 3
f 41/80/101 44/48/102 40/44/94 37/84/93
s 1
f 46/75/103 45/50/104 41/46/96 42/79/95
s 4
f 47/78/105 46/49/106 42/45/98 43/82/97
s 2
f 43/47/100 44/81/99 48/77/107 47/51/108
s 3
f 45/76/109 48/52/110 44/48/102 41/80/101
s 1
f 50/71/111 49/54/112 45/50/104 46/75/103
s 4
f 51/74/113 50/53/114 46/49/106 47/78/105
s 2
f 47/51/108 48/77/107 52/73/115 51/55/116
s 3
f 49/72/117 52/56/118 48/52/110 45/76/109
s 1
f 54/66/119 53/58/120 49/54/112 50/71/111
s 4
f 55/70/121 54/57/122 50/53/114 51/74/113
s 2
f 51/55/116 52/73/115 56/69/123 55/59/124
s 3
f 53/68/125 56/60/126 52/56/118 49/72/117
s 1
f 58/65/4 57/67/3 53/58/120 54/66/119
s 4
f 59/63/20 58/4/19 54/57/122 55/70/121
s 2
f 55/59/124 56/69/123 60/61/6 59/5/5
s 3
f 57/3/16 60/6/15 56/60/126 53/68/125
