# This file uses centimeters as units for non-parametric coordinates.

v 0.500000 0.000000 -0.500000
v 0.475528 0.154509 -0.500000
v 0.404509 0.293893 -0.500000
v 0.293893 0.404509 -0.500000
v 0.154509 0.475528 -0.500000
v 0.000000 0.500000 -0.500000
v -0.154508 0.475528 -0.500000
v -0.293893 0.404509 -0.500000
v -0.404509 0.293893 -0.500000
v -0.475528 0.154509 -0.500000
v -0.500000 0.000000 -0.500000
v 0.500000 -0.000000 0.500000
v 0.475528 0.154509 0.500000
v 0.404509 0.293893 0.500000
v 0.293893 0.404509 0.500000
v 0.154509 0.475528 0.500000
v 0.000000 0.500000 0.500000
v -0.154508 0.475528 0.500000
v -0.293893 0.404509 0.500000
v -0.404509 0.293893 0.500000
v -0.475528 0.154509 0.500000
v -0.500000 -0.000000 0.500000
vt 0.487500 0.312500
vt 0.500000 0.312500
vt 0.512500 0.312500
vt 0.525000 0.312500
vt 0.537500 0.312500
vt 0.550000 0.312500
vt 0.562500 0.312500
vt 0.575000 0.312500
vt 0.587500 0.312500
vt 0.600000 0.312500
vt 0.612500 0.312500
vt 0.487500 0.688440
vt 0.500000 0.688440
vt 0.512500 0.688440
vt 0.525000 0.688440
vt 0.537500 0.688440
vt 0.550000 0.688440
vt 0.562500 0.688440
vt 0.575000 0.688440
vt 0.587500 0.688440
vt 0.600000 0.688440
vt 0.612500 0.688440
vn 0.987688 0.156434 0.000000
vn 0.951057 0.309017 0.000000
vn 0.951057 0.309017 0.000000
vn 0.987688 0.156434 0.000000
vn 0.809017 0.587785 0.000000
vn 0.809017 0.587785 0.000000
vn 0.587785 0.809017 0.000000
vn 0.587785 0.809017 0.000000
vn 0.309017 0.951057 0.000000
vn 0.309017 0.951057 0.000000
vn -0.000000 1.000000 0.000000
vn -0.000000 1.000000 0.000000
vn -0.309017 0.951057 0.000000
vn -0.309017 0.951057 0.000000
vn -0.587785 0.809017 0.000000
vn -0.587785 0.809017 0.000000
vn -0.809017 0.587785 0.000000
vn -0.809017 0.587785 0.000000
vn -0.951057 0.309017 0.000000
vn -0.951057 0.309017 0.000000
vn -0.987688 0.156434 0.000000
vn -0.987688 0.156434 0.000000
f 1/1/1 2/2/2 13/13/3 12/12/4
f 2/2/2 3/3/5 14/14/6 13/13/3
f 3/3/5 4/4/7 15/15/8 14/14/6
f 4/4/7 5/5/9 16/16/10 15/15/8
f 5/5/9 6/6/11 17/17/12 16/16/10
f 6/6/11 7/7/13 18/18/14 17/17/12
f 7/7/13 8/8/15 19/19/16 18/18/14
f 8/8/15 9/9/17 20/20/18 19/19/16
f 9/9/17 10/10/19 21/21/20 20/20/18
f 10/10/19 11/11/21 22/22/22 21/21/20
